<?xml version="1.0" encoding="UTF-8"?>
<svg width="45px" height="47px" viewBox="0 0 45 47" version="1.1" xmlns="http://www.w3.org/2000/svg" xmlns:xlink="http://www.w3.org/1999/xlink">
    <!-- Generator: Sketch 49.1 (51147) - http://www.bohemiancoding.com/sketch -->
    <title>hand</title>
    <desc>Created with Sketch.</desc>
    <defs>
        <linearGradient x1="0%" y1="100%" x2="88.3291568%" y2="8.42054835%" id="linearGradient-1">
            <stop stop-color="#2EA8FF" offset="0%"></stop>
            <stop stop-color="#FD0FC7" offset="100%"></stop>
        </linearGradient>
    </defs>
    <g id="Page-1" stroke="none" stroke-width="1" fill="none" fill-rule="evenodd">
        <g id="landing-02" transform="translate(-139.000000, -2668.000000)">
            <g id="hand" transform="translate(139.000000, 2662.000000)">
                <path d="M6.42857143,6 C2.89071429,6 0,8.88195455 0,12.4090909 C0,15.9362273 2.89071429,18.8181818 6.42857143,18.8181818 C9.96642857,18.8181818 12.8571429,15.9362273 12.8571429,12.4090909 C12.8571429,8.88195455 9.96642857,6 6.42857143,6 Z M22.5,6 C18.9621429,6 16.0714286,8.88195455 16.0714286,12.4090909 C16.0714286,14.1865455 16.8664286,15.7475152 17.98,16.8819242 C18.05,16.9545606 18.1278571,17.015803 18.2142857,17.0656515 L18.2142857,31.1022727 C18.2142857,31.1022727 18.2057143,32.0650606 17.98,32.9715909 C17.8657143,33.4252121 17.6928571,33.8396667 17.5278571,34.0561515 C17.3635714,34.2733485 17.3214286,34.3068182 17.1428571,34.3068182 C16.2335714,34.3068182 15.7257143,33.7841212 14.665,32.9381212 C13.605,32.0928333 12.0535714,31.1022727 9.64285714,31.1022727 C8.48214286,31.1022727 6.80785714,31.0858939 5.29,31.4697273 C4.53142857,31.6612879 3.79428571,31.9425758 3.18071429,32.4873485 C2.56714286,33.0328333 2.14285714,33.9009091 2.14285714,34.8409091 C2.14285714,35.375 2.20142857,36.3762424 2.94642857,37.2108485 C3.69142857,38.0454545 4.91642857,38.7518788 7.13142857,39.5807879 C9.45857143,40.4517121 11.3228571,43.5451667 13.5271429,46.6742273 C14.6285714,48.2401818 15.8342857,49.7840606 17.3607143,50.9804242 C18.8864286,52.1767879 20.7757143,53 23.0357143,53 L34.8214286,53 C34.8378571,53 34.855,53 34.8714286,53 C37.6057143,52.8718182 40.1728571,52.4687576 42.0871429,50.7632273 C44.0014286,49.0584091 45,46.2156212 45,41.7840909 L45,32.7045455 C45,30.3566818 43.0692857,28.4318182 40.7142857,28.4318182 C40.2121429,28.4318182 39.8157143,28.5322273 39.4921429,28.6490152 C39.3442857,27.7837879 39.0485714,27.0189697 38.4707143,26.5461212 C37.7035714,25.9144697 36.7635714,25.7862879 35.9092857,25.828303 C34.7742857,25.881 33.7664286,26.2007424 32.93,26.4955606 C32.3407143,24.8348939 30.7892857,23.625 28.9285714,23.625 C28.0635714,23.625 27.3742857,23.9283636 26.7857143,24.3093485 L26.7857143,17.0820303 C26.8721429,17.0264848 26.9528571,16.9602576 27.02,16.8819242 C28.1335714,15.7475152 28.9285714,14.1865455 28.9285714,12.4090909 C28.9285714,8.88195455 26.0378571,6 22.5,6 Z M38.5714286,6 C35.0335714,6 32.1428571,8.88195455 32.1428571,12.4090909 C32.1428571,15.9362273 35.0335714,18.8181818 38.5714286,18.8181818 C42.1092857,18.8181818 45,15.9362273 45,12.4090909 C45,8.88195455 42.1092857,6 38.5714286,6 Z M6.42857143,8.13636364 C8.80857143,8.13636364 10.7142857,10.036303 10.7142857,12.4090909 C10.7142857,14.7818788 8.80857143,16.6818182 6.42857143,16.6818182 C4.04857143,16.6818182 2.14285714,14.7818788 2.14285714,12.4090909 C2.14285714,10.036303 4.04857143,8.13636364 6.42857143,8.13636364 Z M38.5714286,8.13636364 C40.9514286,8.13636364 42.8571429,10.036303 42.8571429,12.4090909 C42.8571429,14.7818788 40.9514286,16.6818182 38.5714286,16.6818182 C36.1914286,16.6818182 34.2857143,14.7818788 34.2857143,12.4090909 C34.2857143,10.036303 36.1914286,8.13636364 38.5714286,8.13636364 Z M22.5,12.4090909 C23.7057143,12.4090909 24.6428571,13.3433939 24.6428571,14.5454545 C24.64,14.5789242 24.64,14.6123939 24.6428571,14.6458636 L24.6428571,26.8295455 C24.6428571,27.2831667 24.93,27.6862273 25.36,27.8364848 C25.7892857,27.9867424 26.2664286,27.8507273 26.5514286,27.4975152 C27.1821429,26.7156061 27.9492857,25.7613636 28.9285714,25.7613636 C30.1342857,25.7613636 31.0714286,26.6956667 31.0714286,27.8977273 C31.0771429,28.2374091 31.2414286,28.554303 31.5207143,28.7515606 C31.7971429,28.9495303 32.1542857,29.0050758 32.4778571,28.8989697 C33.3814286,28.5984545 34.905,28.0173636 36.01,27.9646667 C36.5628571,27.9397424 36.9278571,28.0287576 37.115,28.1811515 C37.3021429,28.3342576 37.5,28.6319242 37.5,29.5 C37.5,29.7221818 37.5164286,29.9450758 37.6342857,30.2178182 C37.7514286,30.4905606 38.03,30.7882273 38.3371429,30.9185455 C38.9535714,31.1827424 39.3078571,30.9911818 39.5757143,30.9021667 C40.1142857,30.7241364 40.5357143,30.5681818 40.7142857,30.5681818 C41.92,30.5681818 42.8571429,31.5024848 42.8571429,32.7045455 L42.8571429,41.7840909 C42.8571429,45.8980152 41.9614286,47.9902273 40.6471429,49.1609545 C39.3442857,50.3238485 37.3714286,50.7411515 34.8214286,50.8636364 L23.0357143,50.8636364 C21.2778571,50.8636364 19.925,50.268303 18.6828571,49.2948333 C17.4414286,48.3213636 16.345,46.9441212 15.2842857,45.4394091 C13.1642857,42.4292727 11.2778571,38.8522879 7.86857143,37.578303 C5.79785714,36.8049394 4.88,36.1597576 4.55357143,35.792303 C4.22714286,35.4248485 4.28571429,35.375 4.28571429,34.8409091 C4.28571429,34.4456818 4.375,34.2954242 4.60357143,34.0896212 C4.83285714,33.8838182 5.26785714,33.6808636 5.82571429,33.5391515 C6.94214286,33.2550152 8.48214286,33.2386364 9.64285714,33.2386364 C11.5178571,33.2386364 12.3771429,33.8503485 13.3257143,34.6073333 C14.2742857,35.3636061 15.3735714,36.4431818 17.1428571,36.4431818 C18.0357143,36.4431818 18.7971429,35.9254697 19.2357143,35.3415303 C19.6735714,34.7575909 19.9021429,34.1038636 20.0557143,33.489303 C20.3657143,32.2594697 20.3571429,31.1022727 20.3571429,31.1022727 L20.3571429,14.5454545 C20.3571429,13.3433939 21.2942857,12.4090909 22.5,12.4090909 Z" id="Page-1" fill="url(#linearGradient-1)"></path>
                <rect id="Path" x="0" y="0" width="53" height="53"></rect>
            </g>
        </g>
    </g>
</svg>