<?xml version="1.0" encoding="UTF-8"?>
<svg width="38px" height="48px" viewBox="0 0 38 48" version="1.1" xmlns="http://www.w3.org/2000/svg" xmlns:xlink="http://www.w3.org/1999/xlink">
    <!-- Generator: Sketch 49.1 (51147) - http://www.bohemiancoding.com/sketch -->
    <title>Page 1</title>
    <desc>Created with Sketch.</desc>
    <defs>
        <linearGradient x1="0%" y1="100%" x2="73.7728479%" y2="10.8895932%" id="linearGradient-1">
            <stop stop-color="#2EA8FF" offset="0%"></stop>
            <stop stop-color="#FD0FC7" offset="100%"></stop>
        </linearGradient>
    </defs>
    <g id="Page-1" stroke="none" stroke-width="1" fill="none" fill-rule="evenodd">
        <g id="landing-02" transform="translate(-502.000000, -2661.000000)" fill="url(#linearGradient-1)">
            <path d="M503.209107,2661.33251 C502.57664,2661.33251 502,2661.90985 502,2662.54161 L502,2707.79089 C502,2708.42265 502.57664,2709 503.209107,2709 L530.901253,2709 C531.53372,2709 532.11036,2708.42265 532.11036,2707.79089 L532.11036,2696.90893 C532.121667,2696.26869 531.541493,2695.67792 530.901253,2695.67792 C530.261013,2695.67792 529.68084,2696.26869 529.692147,2696.90893 L529.692147,2706.58179 L504.417507,2706.58179 L504.417507,2663.75072 L529.692147,2663.75072 L529.692147,2673.43983 C529.68084,2674.08007 530.261013,2674.67084 530.901253,2674.67084 C531.541493,2674.67084 532.121667,2674.08007 532.11036,2673.43983 L532.11036,2662.54161 C532.11036,2661.90985 531.53372,2661.33251 530.901253,2661.33251 L503.209107,2661.33251 Z M513.096787,2665.30751 C512.456547,2665.29691 511.865773,2665.87637 511.865773,2666.51661 C511.865773,2667.15756 512.456547,2667.73703 513.096787,2667.72572 L521.013573,2667.72572 C521.653813,2667.73703 522.244587,2667.15756 522.244587,2666.51661 C522.244587,2665.87637 521.653813,2665.29691 521.013573,2665.30751 L513.096787,2665.30751 Z M507.38268,2669.49804 C506.78908,2669.55599 506.28664,2670.11072 506.289467,2670.70715 L506.289467,2699.64161 C506.289467,2700.27408 506.866107,2700.85072 507.498573,2700.85072 L526.611787,2700.85072 C527.243547,2700.85072 527.820893,2700.27408 527.820893,2699.64161 L527.820893,2696.95911 C527.831493,2696.31816 527.252027,2695.72739 526.611787,2695.72739 C525.97084,2695.72739 525.391373,2696.31816 525.40268,2696.95911 L525.40268,2698.43251 L508.70768,2698.43251 L508.70768,2671.91625 L525.40268,2671.91625 L525.40268,2673.43983 C525.391373,2674.08007 525.97084,2674.67084 526.611787,2674.67084 C527.252027,2674.67084 527.831493,2674.08007 527.820893,2673.43983 L527.820893,2670.70715 C527.820893,2670.07539 527.243547,2669.49804 526.611787,2669.49804 L507.498573,2669.49804 C507.459707,2669.49804 507.42084,2669.49804 507.38268,2669.49804 Z M515.713573,2675.82483 C515.1228,2675.85521 514.614707,2676.41843 514.645093,2677.0092 C514.67548,2677.59997 515.238693,2678.10807 515.829467,2678.07768 L536.88036,2678.07768 L531.49768,2692.13893 L515.829467,2692.13893 C515.238693,2692.13893 514.70304,2692.67459 514.70304,2693.26536 C514.70304,2693.85613 515.238693,2694.39179 515.829467,2694.39179 L532.259467,2694.39179 C532.709613,2694.38613 533.145627,2694.08509 533.303213,2693.66251 L539.546613,2677.34911 C539.80384,2676.67212 539.226493,2675.83048 538.503573,2675.82483 L515.829467,2675.82483 C515.7906,2675.82483 515.75244,2675.82483 515.713573,2675.82483 Z M527.95304,2678.87268 C527.40396,2678.93628 526.945333,2679.46063 526.959467,2680.01536 L526.959467,2680.7934 C526.037267,2681.24072 525.31152,2682.17705 525.286787,2683.39393 C525.286787,2683.41089 525.286787,2683.42715 525.286787,2683.4434 C525.333427,2684.70551 526.29944,2686.03051 527.803933,2686.21 C527.876013,2686.22908 527.947387,2686.24039 528.019467,2686.24251 C528.03572,2686.24251 528.05268,2686.24251 528.068933,2686.24251 C528.51908,2686.27855 528.598933,2686.51316 528.615893,2686.82268 C528.588333,2687.41628 528.34524,2687.48483 528.03572,2687.48483 C528.030773,2687.48483 528.02512,2687.48483 528.019467,2687.48483 C527.867533,2687.47917 527.718427,2687.41628 527.621613,2687.33572 C527.177827,2686.92161 526.384947,2686.97179 525.993453,2687.43819 C525.60408,2687.90459 525.69524,2688.69111 526.18072,2689.05857 C526.423813,2689.25997 526.680333,2689.41473 526.959467,2689.52215 L526.959467,2690.20125 C526.959467,2690.79203 527.49512,2691.32768 528.085893,2691.32768 C528.676667,2691.32768 529.211613,2690.79203 529.211613,2690.20125 L529.211613,2689.42251 C530.123213,2688.97589 530.85956,2688.04804 530.885,2686.83893 C530.885,2686.81703 530.885,2686.79512 530.885,2686.77251 C530.837653,2685.48072 529.822173,2684.12816 528.251253,2684.00661 C528.201787,2683.99319 528.151613,2683.98188 528.102147,2683.9734 C527.652,2683.93807 527.572147,2683.70345 527.555893,2683.39393 C527.583453,2682.80033 527.826547,2682.74804 528.13536,2682.74804 C528.141013,2682.74804 528.146667,2682.74804 528.151613,2682.74804 C528.303547,2682.75369 528.452653,2682.80033 528.549467,2682.88089 C528.99396,2683.295 529.786133,2683.24483 530.178333,2682.77843 C530.567,2682.31203 530.476547,2681.52551 529.99036,2681.15804 C529.755747,2680.96229 529.485093,2680.83509 529.211613,2680.72768 L529.211613,2680.01536 C529.225747,2679.37229 528.59116,2678.79495 527.95304,2678.87268 Z M517.038573,2701.72911 C515.942533,2701.72911 515.034467,2702.65343 515.034467,2703.74947 C515.034467,2704.84551 515.942533,2705.75357 517.038573,2705.75357 C518.134613,2705.75357 519.058933,2704.84551 519.058933,2703.74947 C519.058933,2702.65343 518.134613,2701.72911 517.038573,2701.72911 Z" id="Page-1"></path>
        </g>
    </g>
</svg>